<?xml version="1.0" encoding="UTF-8"?>
<!DOCTYPE svg PUBLIC "-//W3C//DTD SVG 1.1//EN" "http://www.w3.org/Graphics/SVG/1.1/DTD/svg11.dtd">
<!-- Creator: CorelDRAW -->
<svg xmlns="http://www.w3.org/2000/svg" xml:space="preserve" width="28.0502cm" height="5.61997cm" version="1.1" style="shape-rendering:geometricPrecision; text-rendering:geometricPrecision; image-rendering:optimizeQuality; fill-rule:evenodd; clip-rule:evenodd"
viewBox="0 0 8648.2 1732.7"
 xmlns:xlink="http://www.w3.org/1999/xlink"
 xmlns:xodm="http://www.corel.com/coreldraw/odm/2003">
 <defs>
  <style type="text/css">
   <![CDATA[
    .fil2 {fill:white}
    .fil4 {fill:gray;fill-rule:nonzero}
    .fil0 {fill:white;fill-rule:nonzero}
    .fil1 {fill:white;fill-rule:nonzero}
    .fil3 {fill:gray;fill-rule:nonzero;fill-opacity:0.400000}
   ]]>
  </style>
 </defs>
 <g id="Camada_x0020_1">
  <metadata id="CorelCorpID_0Corel-Layer"/>
  <g id="_1460775993568">
   <path class="fil0" d="M7805.64 1610.85c542.45,224.17 784.03,81.93 842.56,21.54l-187.77 -1099.43c0,0 -102.04,116.79 -368.93,108.74l95.48 557.73c-58.51,60.39 -300.18,202.7 -842.56,-21.47 -172.19,-71.19 -315.05,-94.67 -429.33,-93.31l97.38 552.37c0,0 250.7,-250.32 793.17,-26.17z"/>
   <path class="fil0" d="M7721.83 567.87c148.84,50.32 270.83,70.48 369.64,73.79l-92.27 -541.63c0,0 -191.63,219.45 -738.56,34.31 -546.33,-185.3 -709.4,-159.8 -905.58,-38.94l196.18 1108.05c0,0 116.89,-116.05 363.82,-118.81l-98.8 -555.71c196.2,-120.77 359.33,-147.01 905.58,38.94z"/>
  </g>
  <path class="fil1" d="M968.73 1462.11c251.01,0 419.9,-134.8 419.9,-337.78 0,-156.5 -97.61,-258.76 -292.84,-317.64l-224.67 -68.17c-86.77,-24.79 -137.9,-74.37 -137.9,-142.55 0,-83.67 79.02,-144.1 199.88,-144.1 130.15,0 230.87,69.72 272.7,189.03l178.19 -82.12c-60.43,-164.24 -230.87,-288.2 -452.44,-288.2 -241.71,0 -407.5,136.35 -407.5,334.68 0,148.74 94.52,263.41 289.75,322.28l232.42 71.28c80.57,24.79 134.8,61.98 134.8,139.45 0,80.57 -82.12,142.55 -212.27,142.55 -130.15,0 -249.46,-77.47 -306.79,-220.02l-176.64 80.57c61.98,190.58 254.11,320.74 483.43,320.74z"/>
  <path class="fil1" d="M1580.76 1443.51l207.63 0 0 -427.65 251.01 0c238.61,0 410.6,-131.7 410.6,-362.57 0,-232.42 -168.89,-364.12 -410.6,-364.12l-458.64 0 0 1154.34zm207.63 -608.93l0 -364.12 252.56 0c119.31,0 199.88,72.82 199.88,182.83 0,108.46 -80.57,181.28 -199.88,181.28l-252.56 0z"/>
  <path class="fil1" d="M3130.21 289.18l-266.5 0 -407.5 1154.34 220.02 0 85.22 -249.46 472.58 0 85.22 249.46 220.02 0 -409.06 -1154.34zm-308.34 723.59l176.64 -512.87 175.09 512.87 -351.72 0z"/>
  <path class="fil1" d="M4190.03 1462.11c247.91,0 432.3,-139.45 492.72,-302.14l-184.39 -89.87c-46.48,120.86 -156.49,204.53 -308.34,204.53 -221.57,0 -374.97,-165.79 -374.97,-409.06 0,-241.71 153.39,-407.5 374.97,-407.5 151.85,0 261.86,85.22 308.34,204.53l184.39 -89.87c-58.88,-161.14 -243.26,-302.14 -492.72,-302.14 -334.68,0 -582.59,251.01 -582.59,594.99 0,343.98 249.46,596.54 582.59,596.54z"/>
  <polygon class="fil1" points="4874.89,1443.51 5652.71,1443.51 5654.26,1262.23 5082.51,1262.23 5082.51,955.44 5623.27,955.44 5623.27,774.15 5082.51,774.15 5082.51,470.46 5654.26,470.46 5654.26,289.18 4874.89,289.18 "/>
  <path class="fil2" d="M688.51 331.19c-8.37,2.33 -20.87,9.75 -30.18,15.89 -9.32,6.14 -15.47,11.02 -23.16,17.2 -7.69,6.17 -16.94,13.67 -25.27,22.18 -8.33,8.5 -15.74,18.04 -22.27,27.02 -6.53,8.97 -12.18,17.41 -15.81,23.19 -3.64,5.79 -5.27,8.93 2.92,15.48 8.19,6.55 26.19,16.5 52.78,19.37 26.58,2.85 61.75,-1.38 86.84,-4.35 25.1,-2.96 40.14,-4.66 56.13,-8.26 15.99,-3.6 32.93,-9.11 68.62,-13.66 35.69,-4.55 90.13,-8.15 169.03,-6.03 78.9,2.11 182.26,9.95 237.66,13.66 55.39,3.7 62.79,3.27 67.03,1.69 4.23,-1.59 5.3,-4.35 5.83,-5.72 0.52,-1.38 0.52,-1.38 -0.75,-3.6 -1.27,-2.23 -3.8,-6.67 -9.79,-13.45 -5.99,-6.79 -15.4,-15.9 -27.53,-26.82 -12.13,-10.91 -26.95,-23.62 -38.06,-32.8 -11.12,-9.19 -18.51,-14.85 -25.13,-19.39 -6.63,-4.55 -12.47,-8 -31.39,-9.72 -18.91,-1.73 -50.9,-1.73 -103.66,-2.5 -52.76,-0.77 -126.29,-2.31 -181.16,-2.87 -54.88,-0.56 -91.1,-0.14 -120.63,-0.52 -29.53,-0.4 -52.38,-1.62 -65.92,-3.59 -13.54,-1.99 -17.78,-4.74 -26.14,-2.41z"/>
  <path class="fil3" d="M6174.15 357.92c-13.72,260.65 -797.29,458.45 -1000.22,512.98 -1260.9,338.83 -3304.77,568.31 -4591.68,390.51 -152.63,-21.09 -691.93,-94.88 -562.32,-354.19 210.65,-421.45 3024.42,-670.59 3543.68,-718.31 369.36,-33.87 2365.03,-234.71 2583.97,81.26 18.02,26.01 26.88,56.19 26.57,87.75zm-3118.71 562.7c482.49,-49.81 2660.11,-283.98 2943.13,-569.12 -239.96,-191.96 -1610.29,-173.4 -1928.09,-161.68 -1000.45,36.91 -2688.9,247.76 -3608.54,624.17 -86.53,35.42 -210.25,81.66 -273.16,152.96 348.89,207.16 2385.53,3.18 2866.66,-46.32z"/>
  <path class="fil4" d="M6121.41 355.58c-23.83,387.17 -2414.41,706.54 -2774.53,748.81 -640.66,75.22 -2628.22,240.1 -3174.57,-3.63 -261.24,-116.54 -22.09,-267.5 121.9,-330.57 924.87,-405.1 3582.94,-643.15 4637.03,-647.25 166.49,-0.65 1194.65,-19.28 1190.17,232.64zm-3054.85 672.9c529.38,-54.57 2624.86,-309.37 2962.68,-630.56 128.8,-122.47 -286.65,-176.97 -342.62,-185.18 -1158.3,-169.84 -3444.5,96.11 -4606.9,374.08 -110.98,26.54 -971.96,240.2 -954.81,390.6 17.03,149.3 916.7,160.72 1030.58,161.22 638.1,2.78 1276.68,-44.96 1911.07,-110.14z"/>
  <path class="fil1" d="M5082.52 641.57l0 -171.1 571.75 0 0 -181.29 -779.37 0 0 390.55 207.63 -38.16zm-4349.11 -52.57c-0.94,-74.31 78.84,-137.12 199.7,-137.12 130.15,0 230.87,69.73 272.71,189.04l178.18 -82.12c-60.43,-164.24 -230.87,-288.2 -452.44,-288.2 -241.71,0 -407.5,136.34 -407.5,334.68 0,40.83 1.83,34.96 1.83,34.96 84.94,-24.98 207.53,-51.24 207.53,-51.24zm1711.51 130.59c3.34,-21.09 5.1,-43.19 5.1,-66.29 0,-232.41 -168.89,-364.12 -410.61,-364.12l-458.64 0 0 430.41 207.63 0 0 -249.12 252.56 0c119.31,0 199.88,72.82 199.88,182.83 0,23.97 -3.93,46.21 -11.36,66.29l215.44 0zm685.3 -430.41l-266.51 0 -151.94 430.41 211.08 0 75.66 -219.68 75 219.68 209.23 0 -152.52 -430.41zm705.75 430.41c49.05,-159.98 180.69,-261.52 354.07,-261.52 151.84,0 261.85,85.22 308.34,204.53l184.39 -89.87c-58.88,-161.14 -243.26,-302.14 -492.72,-302.14 -285.18,0 -507.32,182.27 -566.81,449l212.74 0z"/>
 </g>
</svg>
